<svg xmlns="http://www.w3.org/2000/svg" width="722.749" height="722.749" viewBox="0 0 722.749 722.749">
  <g id="Group_26" data-name="Group 26" transform="translate(768.322 93.526)">
    <circle id="Ellipse_8" data-name="Ellipse 8" cx="305" cy="305" r="305" transform="translate(-712 -37)" fill="#262626"/>
    <g id="Group_25" data-name="Group 25" transform="matrix(0.966, -0.259, 0.259, 0.966, -810.324, 57.004)">
      <circle id="Ellipse_1" data-name="Ellipse 1" cx="265" cy="265" r="265" transform="translate(70.907 43.389)" fill="#fff"/>
      <text id="Letha" transform="translate(150.648 412.061)" fill="#262626" font-size="141" font-family="AcuminPro-Semibold, Acumin Pro" font-weight="600"><tspan x="0" y="0">Letha</tspan></text>
      <path id="shoe-prints-solid" d="M71.961,59.966H83.954V11.993H71.961a23.987,23.987,0,1,0,0,47.974ZM0,155.914A23.985,23.985,0,0,0,23.987,179.9H35.98V131.927H23.987A23.985,23.985,0,0,0,0,155.914ZM126.478,107.94c-13.084,0-28.544,4.917-39.252,11.993-9.291,6.139-16.686,11.993-39.252,11.993V179.9l21.562,5.985a153.163,153.163,0,0,0,30.1,5.641,130.377,130.377,0,0,0,36.572-2.324c41.033-8.815,55.687-28.335,55.687-45.283,0-23.987-31.55-35.98-65.417-35.98Zm57.7-105.246A130.239,130.239,0,0,0,147.609.37a153.434,153.434,0,0,0-30.1,5.637L95.947,11.993V59.966c22.563,0,29.961,5.854,39.252,11.993,10.708,7.076,26.168,11.993,39.252,11.993,33.866,0,65.417-11.993,65.417-35.98,0-16.948-14.654-36.468-55.687-45.279Z" transform="matrix(0.839, -0.545, 0.545, 0.839, 185.056, 171.677)" fill="#262626"/>
      <text id="Shoes_that_fit_you." data-name="Shoes that fit you." transform="translate(202.298 458.637)" fill="#262626" font-size="32" font-family="AcuminPro-Semibold, Acumin Pro" font-weight="600"><tspan x="0" y="0">Shoes that fit you.</tspan></text>
      <g id="Path_5" data-name="Path 5" transform="translate(55.807 28.807)" fill="none">
        <path d="M279.254,0C433.482,0,558.508,125.026,558.508,279.254A279.251,279.251,0,0,1,279.254,558.508C125.026,558.508,0,433.482,0,279.254S125.026,0,279.254,0Z" stroke="none"/>
        <path d="M 279.2540588378906 4 C 260.5757751464844 4 241.9104919433594 5.8814697265625 223.7764892578125 9.59222412109375 C 206.1054992675781 13.208251953125 188.7236938476563 18.60382080078125 172.1139831542969 25.62921142578125 C 155.8049011230469 32.52734375 140.0744934082031 41.0655517578125 125.3597106933594 51.0067138671875 C 110.7836303710938 60.85406494140625 97.07684326171875 72.1632080078125 84.62005615234375 84.62005615234375 C 72.1632080078125 97.07684326171875 60.85406494140625 110.7836303710938 51.0067138671875 125.3597106933594 C 41.0655517578125 140.0744934082031 32.52734375 155.8049011230469 25.62921142578125 172.1139831542969 C 18.60382080078125 188.7236938476563 13.208251953125 206.1054992675781 9.59222412109375 223.7764892578125 C 5.8814697265625 241.9104919433594 4 260.5757751464844 4 279.2540588378906 C 4 297.9322814941406 5.8814697265625 316.5976257324219 9.59222412109375 334.7315673828125 C 13.208251953125 352.4026489257813 18.60382080078125 369.784423828125 25.62921142578125 386.3941345214844 C 32.52734375 402.7031860351563 41.0655517578125 418.4336242675781 51.0067138671875 433.1484069824219 C 60.85406494140625 447.7244873046875 72.1632080078125 461.4312744140625 84.62005615234375 473.8880615234375 C 97.07684326171875 486.3448486328125 110.7836303710938 497.654052734375 125.3597106933594 507.5014038085938 C 140.0744934082031 517.4425659179688 155.8049011230469 525.9807739257813 172.1139831542969 532.87890625 C 188.7236938476563 539.904296875 206.1054992675781 545.2998657226563 223.7764892578125 548.9158935546875 C 241.9104919433594 552.6266479492188 260.5757751464844 554.5081176757813 279.2540588378906 554.5081176757813 C 298.9291381835938 554.5081176757813 318.5687866210938 552.4223022460938 337.6274108886719 548.3084106445313 C 356.1772766113281 544.304443359375 374.36572265625 538.3405151367188 391.6875 530.5823364257813 C 408.6923217773438 522.9661865234375 424.9948425292969 513.5629272460938 440.1421203613281 502.6337890625 C 455.1611328125 491.7972106933594 469.1378479003906 479.3939208984375 481.6841430664063 465.7684936523438 C 493.0059204101563 453.472900390625 503.2583312988281 440.0931396484375 512.1566162109375 426.0006103515625 C 521.146728515625 411.7628479003906 528.8550415039063 396.6374816894531 535.067626953125 381.0446166992188 C 541.3926391601563 365.1695556640625 546.2460327148438 348.609619140625 549.4929809570313 331.8247680664063 C 552.82080078125 314.6221923828125 554.5081176757813 296.9349060058594 554.5081176757813 279.2540588378906 C 554.5081176757813 260.5757751464844 552.6266479492188 241.9104919433594 548.9158935546875 223.7764892578125 C 545.2998657226563 206.1054992675781 539.904296875 188.7236938476563 532.87890625 172.1139831542969 C 525.9807739257813 155.8049011230469 517.4425659179688 140.0744934082031 507.5014038085938 125.3597106933594 C 497.654052734375 110.7836303710938 486.3448486328125 97.07684326171875 473.8880615234375 84.62005615234375 C 461.4312744140625 72.1632080078125 447.7244873046875 60.85406494140625 433.1484069824219 51.0067138671875 C 418.4336242675781 41.0655517578125 402.7031860351563 32.52734375 386.3941345214844 25.62921142578125 C 369.784423828125 18.60382080078125 352.4026489257813 13.208251953125 334.7315673828125 9.59222412109375 C 316.5976257324219 5.8814697265625 297.9322814941406 4 279.2540588378906 4 M 279.2540588378906 0 C 433.4817810058594 0 558.5081176757813 125.0262756347656 558.5081176757813 279.2540588378906 C 558.5081176757813 352.2034301757813 530.5364379882813 418.6195678710938 484.626708984375 468.4779968261719 C 433.70068359375 523.7843627929688 360.532470703125 558.5081176757813 279.2540588378906 558.5081176757813 C 125.0262756347656 558.5081176757813 0 433.4817810058594 0 279.2540588378906 C 0 125.0262756347656 125.0262756347656 0 279.2540588378906 0 Z" stroke="none" fill="#fff"/>
      </g>
      <g id="Ellipse_4" data-name="Ellipse 4" transform="translate(40 13)" fill="none" stroke="#fff" stroke-width="8">
        <circle cx="295.061" cy="295.061" r="295.061" stroke="none"/>
        <circle cx="295.061" cy="295.061" r="291.061" fill="none"/>
      </g>
    </g>
  </g>
</svg>
